<?xml version="1.0" encoding="UTF-8"?>
<svg version="1.1" xmlns="http://www.w3.org/2000/svg" width="242" height="197">
<path d="M0 0 C6.39037797 -0.024644 12.78072852 -0.04283317 19.17114258 -0.05493164 C21.34692873 -0.05997308 23.52271147 -0.06680607 25.69848633 -0.07543945 C28.81853067 -0.08751338 31.93853038 -0.09323005 35.05859375 -0.09765625 C36.52733192 -0.10539818 36.52733192 -0.10539818 38.02574158 -0.11329651 C39.37702904 -0.11340981 39.37702904 -0.11340981 40.75561523 -0.11352539 C41.95141457 -0.11685631 41.95141457 -0.11685631 43.17137146 -0.12025452 C45 0 45 0 46 1 C46.14355117 5.00220653 46.04216403 8.99441683 46 13 C50.29 13 54.58 13 59 13 C59 19.6 59 26.2 59 33 C52.73 33 46.46 33 40 33 C40 28.71 40 24.42 40 20 C28.78 20 17.56 20 6 20 C6 26.6 6 33.2 6 40 C14.58 40 23.16 40 32 40 C32 46.27 32 52.54 32 59 C23.42 59 14.84 59 6 59 C6 65.6 6 72.2 6 79 C17.22 79 28.44 79 40 79 C40 74.71 40 70.42 40 66 C46.27 66 52.54 66 59 66 C59 72.27 59 78.54 59 85 C54.71 85 50.42 85 46 85 C46 89.29 46 93.58 46 98 C30.82 98 15.64 98 0 98 C0 93.71 0 89.42 0 85 C-4.62 85 -9.24 85 -14 85 C-14.02255261 75.76002129 -14.04091601 66.52006072 -14.05181217 57.28006077 C-14.05704061 52.99000085 -14.06413753 48.69996067 -14.07543945 44.40991211 C-14.08626975 40.273206 -14.09227714 36.13651892 -14.09487724 31.99979973 C-14.09673124 30.41807696 -14.10035136 28.83635529 -14.10573006 27.25464058 C-14.1129424 25.04677162 -14.11399086 22.83898227 -14.11352539 20.63110352 C-14.115746 19.37201675 -14.11796661 18.11292999 -14.12025452 16.81568909 C-14 14 -14 14 -13 13 C-8.66469082 12.85606543 -4.33842269 12.95787939 0 13 C0 8.71 0 4.42 0 0 Z " fill="#E2E2E1" transform="translate(100,56)"/>
</svg>
